<mxfile host="app.diagrams.net" modified="2023-04-24T05:03:08.316Z" agent="Mozilla/5.0 (Windows NT 10.0; Win64; x64) AppleWebKit/537.36 (KHTML, like Gecko) Chrome/112.0.0.0 Safari/537.36 Edg/112.0.1722.48" etag="bmccnBxtMZsxvc5BWm-N" version="21.2.1" type="github">
  <diagram name="第 1 页" id="23a9-tOKn5QICBtKHV1R">
    <mxGraphModel dx="993" dy="619" grid="1" gridSize="10" guides="1" tooltips="1" connect="1" arrows="1" fold="1" page="1" pageScale="1" pageWidth="827" pageHeight="1169" math="0" shadow="0">
      <root>
        <mxCell id="0" />
        <mxCell id="1" parent="0" />
        <mxCell id="a7Avv1Lj0Rs7VsiQzfz0-7" style="edgeStyle=orthogonalEdgeStyle;rounded=0;orthogonalLoop=1;jettySize=auto;html=1;entryX=0;entryY=0.5;entryDx=0;entryDy=0;" edge="1" parent="1" source="a7Avv1Lj0Rs7VsiQzfz0-1" target="a7Avv1Lj0Rs7VsiQzfz0-6">
          <mxGeometry relative="1" as="geometry" />
        </mxCell>
        <mxCell id="a7Avv1Lj0Rs7VsiQzfz0-8" style="edgeStyle=orthogonalEdgeStyle;rounded=0;orthogonalLoop=1;jettySize=auto;html=1;entryX=0;entryY=0.5;entryDx=0;entryDy=0;" edge="1" parent="1" source="a7Avv1Lj0Rs7VsiQzfz0-1" target="a7Avv1Lj0Rs7VsiQzfz0-5">
          <mxGeometry relative="1" as="geometry" />
        </mxCell>
        <mxCell id="a7Avv1Lj0Rs7VsiQzfz0-9" style="edgeStyle=orthogonalEdgeStyle;rounded=0;orthogonalLoop=1;jettySize=auto;html=1;entryX=0;entryY=0.5;entryDx=0;entryDy=0;" edge="1" parent="1" source="a7Avv1Lj0Rs7VsiQzfz0-1" target="a7Avv1Lj0Rs7VsiQzfz0-4">
          <mxGeometry relative="1" as="geometry" />
        </mxCell>
        <mxCell id="a7Avv1Lj0Rs7VsiQzfz0-10" style="edgeStyle=orthogonalEdgeStyle;rounded=0;orthogonalLoop=1;jettySize=auto;html=1;entryX=0;entryY=0.5;entryDx=0;entryDy=0;" edge="1" parent="1" source="a7Avv1Lj0Rs7VsiQzfz0-1" target="a7Avv1Lj0Rs7VsiQzfz0-3">
          <mxGeometry relative="1" as="geometry" />
        </mxCell>
        <mxCell id="a7Avv1Lj0Rs7VsiQzfz0-1" value="餐饮推荐系统" style="rounded=0;whiteSpace=wrap;html=1;" vertex="1" parent="1">
          <mxGeometry x="110" y="290" width="110" height="50" as="geometry" />
        </mxCell>
        <mxCell id="a7Avv1Lj0Rs7VsiQzfz0-3" value="后台管理模块" style="rounded=0;whiteSpace=wrap;html=1;" vertex="1" parent="1">
          <mxGeometry x="359" y="410" width="110" height="50" as="geometry" />
        </mxCell>
        <mxCell id="a7Avv1Lj0Rs7VsiQzfz0-4" value="评论分享模块" style="rounded=0;whiteSpace=wrap;html=1;" vertex="1" parent="1">
          <mxGeometry x="359" y="330" width="110" height="50" as="geometry" />
        </mxCell>
        <mxCell id="a7Avv1Lj0Rs7VsiQzfz0-5" value="界面推荐模块" style="rounded=0;whiteSpace=wrap;html=1;" vertex="1" parent="1">
          <mxGeometry x="359" y="250" width="110" height="50" as="geometry" />
        </mxCell>
        <mxCell id="a7Avv1Lj0Rs7VsiQzfz0-6" value="用户模块" style="rounded=0;whiteSpace=wrap;html=1;" vertex="1" parent="1">
          <mxGeometry x="359" y="170" width="110" height="50" as="geometry" />
        </mxCell>
        <mxCell id="a7Avv1Lj0Rs7VsiQzfz0-11" value="开始" style="strokeWidth=2;html=1;shape=mxgraph.flowchart.terminator;whiteSpace=wrap;" vertex="1" parent="1">
          <mxGeometry x="230" y="540" width="100" height="40" as="geometry" />
        </mxCell>
        <mxCell id="a7Avv1Lj0Rs7VsiQzfz0-12" value="使用搜索框查询" style="strokeWidth=2;html=1;shape=mxgraph.flowchart.decision;whiteSpace=wrap;" vertex="1" parent="1">
          <mxGeometry x="217.5" y="600" width="125" height="50" as="geometry" />
        </mxCell>
        <mxCell id="a7Avv1Lj0Rs7VsiQzfz0-13" value="输入菜品名搜索" style="rounded=0;whiteSpace=wrap;html=1;" vertex="1" parent="1">
          <mxGeometry x="223.75" y="670" width="112.5" height="40" as="geometry" />
        </mxCell>
        <mxCell id="a7Avv1Lj0Rs7VsiQzfz0-15" value="输入菜品名搜索" style="rounded=0;whiteSpace=wrap;html=1;" vertex="1" parent="1">
          <mxGeometry x="50" y="670" width="112.5" height="40" as="geometry" />
        </mxCell>
      </root>
    </mxGraphModel>
  </diagram>
</mxfile>
